<svg xmlns="http://www.w3.org/2000/svg" id="Capa_1" data-name="Capa 1" viewBox="82.42 392.14 914.58 278.98"><defs><style>.cls-1{fill:#132538;}.cls-2{fill:#0058e6;}</style></defs><title>variacion de logo PeerPromote</title><path class="cls-1" d="M311.71,392.4c42.62,42.62,53.07,108.82,19.16,169.18a104.09,104.09,0,0,1-40.11,40C187.55,658.94,82.42,585.2,82.42,487.38a133.45,133.45,0,0,1,39.15-94.79l34.75,34.61c-28.22,28.34-34.12,73-8.81,112.6a56.5,56.5,0,0,0,18.2,17.71c66.79,40.7,136.3-6.75,136.3-70.13a84.69,84.69,0,0,0-25-60.3Z"/><path class="cls-2" d="M216.74,460.44a29.83,29.83,0,1,1-29.83,29.83,29.86,29.86,0,0,1,29.83-29.83m0-20.9a50.73,50.73,0,1,0,50.72,50.73,50.73,50.73,0,0,0-50.72-50.73Z"/><path class="cls-1" d="M410.53,394.19Q439,387,457.17,405.1a44.24,44.24,0,0,1-31.27,75.51,43.46,43.46,0,0,1-19.23-4.32v42.34l-25.06,23.85V436.42q0-25.53,25.12-40.65A14.22,14.22,0,0,1,410.53,394.19Zm15.37,61.46A19.27,19.27,0,1,0,412.31,450,18.49,18.49,0,0,0,425.9,455.65Z"/><path class="cls-1" d="M515,392.14a44.4,44.4,0,0,1,44.28,44.28,44.33,44.33,0,0,1-.71,7.94h-61q5.82,11.37,17.47,11.38a18.29,18.29,0,0,0,11.82-4.15h29.81q-16,36.11-56.09,27.56a13,13,0,0,1-3.9-1.52q-25.93-15.27-25.93-41.21A44.33,44.33,0,0,1,515,392.14Zm-16.32,34.13h32.64q-6-9.07-16.32-9.08T498.71,426.27Z"/><path class="cls-1" d="M604.15,392.14a44.4,44.4,0,0,1,44.29,44.28,44.33,44.33,0,0,1-.71,7.94h-61q5.82,11.37,17.46,11.38A18.25,18.25,0,0,0,616,451.59h29.82q-16,36.11-56.09,27.56a13.14,13.14,0,0,1-3.91-1.52q-25.92-15.27-25.92-41.21a44.33,44.33,0,0,1,44.28-44.28Zm-16.32,34.13h32.64q-6-9.07-16.32-9.08T587.83,426.27Z"/><path class="cls-1" d="M649,436.6a44.26,44.26,0,0,1,69.16-36.53l-14.64,20.29A19.25,19.25,0,0,0,674,436.6a1,1,0,0,0,.08.44v.35H674v43.49H649V436.6Z"/><path class="cls-1" d="M410.53,497.25Q439,490,457.17,508.16a44.24,44.24,0,0,1-31.27,75.51,43.46,43.46,0,0,1-19.23-4.32v42.34H381.61V539.48q0-25.53,25.12-40.65A14.22,14.22,0,0,1,410.53,497.25Zm15.37,61.46a19.27,19.27,0,1,0-13.59-5.65A18.49,18.49,0,0,0,425.9,558.71Z"/><path class="cls-1" d="M470.74,539.66a44.25,44.25,0,0,1,69.16-36.52l-14.64,20.28a19.25,19.25,0,0,0-29.55,16.24,1,1,0,0,0,.09.44v.35h-.09v43.49h-25V539.66Z"/><path class="cls-1" d="M575.93,495.2a44.29,44.29,0,0,1,31.27,75.64Q589,589.05,560.51,581.78a14,14,0,0,1-3.8-1.6q-25.07-15.2-25.06-40.7a44.33,44.33,0,0,1,44.28-44.28Zm0,63.6a19.27,19.27,0,1,0-13.59-5.65A18.53,18.53,0,0,0,575.93,558.8Z"/><path class="cls-1" d="M728.57,495.2q26.65,0,42,27.62a17.35,17.35,0,0,1,2.17,8.46v52.39h-25V540.18h-.09v-.26a1.43,1.43,0,0,0,.09-.44,19.24,19.24,0,0,0-32.68-13.76,19.24,19.24,0,0,0-5.78,13.58v.88h-.09v.62h.09v42.87H684.29V539.3a19.33,19.33,0,0,0-5.78-13.58,19.23,19.23,0,0,0-27,.17,18.56,18.56,0,0,0-5.64,13.59v44.37H620.77V537.1h.09a44.43,44.43,0,0,1,13.9-29.91,42.34,42.34,0,0,1,30.3-12,42.82,42.82,0,0,1,31.75,13.4A42.66,42.66,0,0,1,728.57,495.2Z"/><path class="cls-1" d="M817.61,495.2a44.29,44.29,0,0,1,31.27,75.64q-18.21,18.21-46.69,10.94a13.76,13.76,0,0,1-3.79-1.6q-25.08-15.2-25.07-40.7a44.35,44.35,0,0,1,44.28-44.28Zm0,63.6A19.27,19.27,0,1,0,804,553.15,18.56,18.56,0,0,0,817.61,558.8Z"/><path class="cls-1" d="M893.07,470.41V495.2H912.3v18.08H893.07v26.2a18.45,18.45,0,0,0,5.51,13.5,19.18,19.18,0,0,0,13.72,5.73v25q-18.79-.43-31.54-13.19A42.28,42.28,0,0,1,868,539.48v-1a.79.79,0,0,0,.09-.35H868V513.28h-10V495.2h10V470.41Z"/><path class="cls-1" d="M952.73,495.2A44.42,44.42,0,0,1,997,539.48a44.33,44.33,0,0,1-.71,7.94h-61q5.82,11.37,17.46,11.38a18.2,18.2,0,0,0,11.82-4.15h29.82q-16,36.11-56.09,27.56a13.14,13.14,0,0,1-3.91-1.52q-25.92-15.27-25.92-41.21a44.35,44.35,0,0,1,44.28-44.28Zm-16.32,34.13h32.64q-6-9.08-16.32-9.08T936.41,529.33Z"/><path class="cls-2" d="M398.83,636.69a14.36,14.36,0,0,0-6.68,1.62,15.3,15.3,0,0,0-8.06,11,14.44,14.44,0,0,0-.22,2.51,10.5,10.5,0,0,0,1.31,5.28,9,9,0,0,0,3.71,3.57A11.75,11.75,0,0,0,394.4,662a14.49,14.49,0,0,0,7.64-2.11,14.16,14.16,0,0,0,5.4-5.9h-5.7a7.82,7.82,0,0,1-6.6,3.48,6,6,0,0,1-4.48-1.67,6.16,6.16,0,0,1-1.65-4.54,12.32,12.32,0,0,1,.18-1.87,10.7,10.7,0,0,1,1.68-4.26,8.78,8.78,0,0,1,3.12-2.83,8.43,8.43,0,0,1,4-1,6.25,6.25,0,0,1,3.4.87,4.66,4.66,0,0,1,2,2.57h5.7a8.78,8.78,0,0,0-3.33-5.88,11,11,0,0,0-6.91-2.13Z"/><path class="cls-2" d="M421.8,641.8a12,12,0,0,0-6.12,1.59,11.68,11.68,0,0,0-4.32,4.34,12,12,0,0,0-1.58,6.08,8.66,8.66,0,0,0,1.06,4.33,7.29,7.29,0,0,0,3,2.9,9.28,9.28,0,0,0,4.45,1,12.3,12.3,0,0,0,6.15-1.58,11.57,11.57,0,0,0,4.37-4.3,11.82,11.82,0,0,0,1.6-6.1,8.5,8.5,0,0,0-1.08-4.32,7.49,7.49,0,0,0-3.05-2.93,9.49,9.49,0,0,0-4.48-1Zm-2.84,16a3.9,3.9,0,0,1-2.92-1.14,4.37,4.37,0,0,1-1.12-3.22,8.72,8.72,0,0,1,.78-3.64,6.84,6.84,0,0,1,2.18-2.74,5.24,5.24,0,0,1,3.21-1,4.15,4.15,0,0,1,3,1.15,4.37,4.37,0,0,1,1.19,3.28,8.12,8.12,0,0,1-.82,3.58,7,7,0,0,1-2.26,2.73,5.52,5.52,0,0,1-3.23,1Z"/><path class="cls-2" d="M445.72,641.83a8.52,8.52,0,0,0-3.48.73,9,9,0,0,0-2.87,2l.43-2.4h-5l-3.47,19.63h5l1.95-11.09a5.78,5.78,0,0,1,1.86-3.42,5.06,5.06,0,0,1,3.38-1.19,3.69,3.69,0,0,1,2.68.92,3.64,3.64,0,0,1,.94,2.69,7.52,7.52,0,0,1-.11,1.24l-1.91,10.85H450l2.06-11.52a11.63,11.63,0,0,0,.17-2.05,6.14,6.14,0,0,0-1.75-4.7,6.73,6.73,0,0,0-4.8-1.65Z"/><path class="cls-2" d="M466.1,641.8a11.6,11.6,0,0,0-5.35,1.24,11.33,11.33,0,0,0-4.1,3.54,12.94,12.94,0,0,0-2.18,5.35,12.72,12.72,0,0,0-.21,2.24,7.54,7.54,0,0,0,2.27,5.77,8.44,8.44,0,0,0,6,2.13,11,11,0,0,0,6.22-1.83,11.1,11.1,0,0,0,4.06-4.66h-5.35a5.23,5.23,0,0,1-1.75,1.72,4.84,4.84,0,0,1-2.57.66,3.94,3.94,0,0,1-2.86-1.05,3.82,3.82,0,0,1-1.08-2.89,4.23,4.23,0,0,1,0-.7h14.35a16.64,16.64,0,0,0,.46-1.85,10.17,10.17,0,0,0,.18-2,7.28,7.28,0,0,0-2.2-5.58,8.32,8.32,0,0,0-5.95-2.07Zm-6.31,8.5a6.26,6.26,0,0,1,2.09-3.24,5.28,5.28,0,0,1,3.37-1.19,4.2,4.2,0,0,1,2.87,1,3.35,3.35,0,0,1,1.1,2.66c0,.16,0,.43-.07.81Z"/><path class="cls-2" d="M487,641.8a11.24,11.24,0,0,0-9.32,4.8,12.72,12.72,0,0,0-2.16,5.33,13.49,13.49,0,0,0-.21,2.31,7.53,7.53,0,0,0,2.21,5.72,8.25,8.25,0,0,0,5.94,2.11,11,11,0,0,0,6.32-1.88,11.47,11.47,0,0,0,4.13-5.07H488.6a4.65,4.65,0,0,1-4.39,2.7,3.56,3.56,0,0,1-2.77-1.08,4.45,4.45,0,0,1-1-3.11,9.85,9.85,0,0,1,.18-1.7,8.06,8.06,0,0,1,2-4.37,4.88,4.88,0,0,1,3.63-1.54,3.65,3.65,0,0,1,2.38.72,3.18,3.18,0,0,1,1.1,2h5.35a7.25,7.25,0,0,0-2.32-5.14,8.46,8.46,0,0,0-5.73-1.8Z"/><path class="cls-2" d="M505.76,637.26h-5l-.85,4.86h-2.38l-.7,4.07h2.33l-1.66,9.46a9.26,9.26,0,0,0-.14,1.67q0,4.42,5.31,4.43h3.16l.74-4.18h-2.34a2.34,2.34,0,0,1-1.36-.3,1.18,1.18,0,0,1-.41-1,2.91,2.91,0,0,1,0-.57l1.66-9.5h4.4l.7-4.07h-4.35l.85-4.86Z"/><path class="cls-2" d="M519.82,641.8A9.79,9.79,0,0,0,515,643a11.15,11.15,0,0,0-3.84,3.54,13.25,13.25,0,0,0-2.11,5.28,12.52,12.52,0,0,0-.22,2.31,8.89,8.89,0,0,0,.93,4.16,6.56,6.56,0,0,0,2.58,2.76,7.45,7.45,0,0,0,3.83,1,9.34,9.34,0,0,0,7.09-3.19l-.53,2.87h5l3.48-19.63h-5l-.5,2.8a5.65,5.65,0,0,0-2.21-2.24,7.23,7.23,0,0,0-3.71-.88Zm-1.52,15.91a4.13,4.13,0,0,1-3-1.22,4.58,4.58,0,0,1-1.2-3.35,7.3,7.3,0,0,1,.11-1.28,7.13,7.13,0,0,1,1.27-3.06,6.55,6.55,0,0,1,2.25-2,5.72,5.72,0,0,1,2.68-.67,4.11,4.11,0,0,1,4.28,4.43,9,9,0,0,1-.14,1.34,7.48,7.48,0,0,1-1.26,3.09,6.45,6.45,0,0,1-2.24,2,5.77,5.77,0,0,1-2.7.69Z"/><polygon class="cls-2" points="558.31 647.01 543.25 647.01 542.51 651.19 557.57 651.19 558.31 647.01 558.31 647.01"/><path class="cls-2" d="M584.93,636.69a14.36,14.36,0,0,0-6.68,1.62,15.3,15.3,0,0,0-8.06,11,15.46,15.46,0,0,0-.21,2.51,10.39,10.39,0,0,0,1.31,5.28,9,9,0,0,0,3.7,3.57A11.78,11.78,0,0,0,580.5,662a14.46,14.46,0,0,0,7.64-2.11,14.18,14.18,0,0,0,5.41-5.9h-5.71a7.87,7.87,0,0,1-2.87,2.59,8,8,0,0,1-3.72.89,6,6,0,0,1-4.49-1.67,6.16,6.16,0,0,1-1.64-4.54,12.12,12.12,0,0,1,.17-1.87,10.86,10.86,0,0,1,1.69-4.26,8.78,8.78,0,0,1,3.12-2.83,8.41,8.41,0,0,1,4-1,6.27,6.27,0,0,1,3.4.87,4.69,4.69,0,0,1,2,2.57h5.7a8.7,8.7,0,0,0-3.33-5.88,11,11,0,0,0-6.91-2.13Z"/><path class="cls-2" d="M607.9,641.8a12,12,0,0,0-6.11,1.59,11.64,11.64,0,0,0-4.33,4.34,12,12,0,0,0-1.58,6.08,8.66,8.66,0,0,0,1.07,4.33,7.27,7.27,0,0,0,3,2.9,9.28,9.28,0,0,0,4.45,1,12.3,12.3,0,0,0,6.15-1.58,11.66,11.66,0,0,0,4.38-4.3,11.91,11.91,0,0,0,1.59-6.1,8.5,8.5,0,0,0-1.08-4.32,7.49,7.49,0,0,0-3-2.93,9.49,9.49,0,0,0-4.48-1Zm-2.84,16a3.9,3.9,0,0,1-2.92-1.14,4.37,4.37,0,0,1-1.12-3.22,8.72,8.72,0,0,1,.78-3.64,6.84,6.84,0,0,1,2.18-2.74,5.26,5.26,0,0,1,3.21-1,4.15,4.15,0,0,1,3,1.15,4.37,4.37,0,0,1,1.19,3.28,8.25,8.25,0,0,1-.81,3.58,7.07,7.07,0,0,1-2.27,2.73,5.52,5.52,0,0,1-3.23,1Z"/><polygon class="cls-2" points="627.07 635.52 622.08 635.52 617.43 661.75 622.43 661.75 627.07 635.52 627.07 635.52"/><path class="cls-2" d="M637.74,641.8A9.83,9.83,0,0,0,633,643a11.15,11.15,0,0,0-3.84,3.54,13.55,13.55,0,0,0-2.11,5.28,13.4,13.4,0,0,0-.21,2.31,8.89,8.89,0,0,0,.92,4.16,6.58,6.58,0,0,0,2.59,2.76,7.41,7.41,0,0,0,3.82,1,9.34,9.34,0,0,0,7.09-3.19l-.53,2.87h5l3.47-19.63h-5l-.5,2.8a5.61,5.61,0,0,0-2.22-2.24,7.19,7.19,0,0,0-3.7-.88Zm-1.52,15.91a4.11,4.11,0,0,1-3.05-1.22,4.55,4.55,0,0,1-1.21-3.35,8.41,8.41,0,0,1,.11-1.28,7.14,7.14,0,0,1,1.28-3.06,6.37,6.37,0,0,1,2.25-2,5.68,5.68,0,0,1,2.67-.67,4.11,4.11,0,0,1,4.29,4.43,10.58,10.58,0,0,1-.14,1.34,7.48,7.48,0,0,1-1.26,3.09,6.57,6.57,0,0,1-2.25,2,5.7,5.7,0,0,1-2.69.69Z"/><path class="cls-2" d="M659.39,635.52h-5l-4.64,26.23h5l.5-2.8a5.42,5.42,0,0,0,2.23,2.25,7.42,7.42,0,0,0,3.72.87,9.54,9.54,0,0,0,4.75-1.28,11.56,11.56,0,0,0,3.86-3.59,13.28,13.28,0,0,0,2.13-5.34,12.79,12.79,0,0,0,.21-2.27,8.78,8.78,0,0,0-.92-4.14,6.36,6.36,0,0,0-2.6-2.71,7.82,7.82,0,0,0-3.88-.94,9.16,9.16,0,0,0-4,.88,8.67,8.67,0,0,0-3,2.31l1.66-9.47Zm1.24,22.19a4.11,4.11,0,0,1-4.28-4.43,9.19,9.19,0,0,1,.14-1.35,7.39,7.39,0,0,1,1.27-3.08,6.72,6.72,0,0,1,2.27-2,5.67,5.67,0,0,1,2.66-.69,4.23,4.23,0,0,1,3.08,1.17,4.29,4.29,0,0,1,1.21,3.26,8.84,8.84,0,0,1-.11,1.27A7.4,7.4,0,0,1,665.6,655a6.78,6.78,0,0,1-2.27,2,5.65,5.65,0,0,1-2.7.71Z"/><path class="cls-2" d="M685.3,641.8a12,12,0,0,0-6.11,1.59,11.71,11.71,0,0,0-4.33,4.34,12,12,0,0,0-1.57,6.08,8.66,8.66,0,0,0,1.06,4.33,7.33,7.33,0,0,0,3,2.9,9.28,9.28,0,0,0,4.45,1,12.24,12.24,0,0,0,6.15-1.58,11.59,11.59,0,0,0,4.38-4.3,11.91,11.91,0,0,0,1.59-6.1,8.5,8.5,0,0,0-1.08-4.32,7.43,7.43,0,0,0-3.05-2.93,9.46,9.46,0,0,0-4.48-1Zm-2.84,16a3.9,3.9,0,0,1-2.92-1.14,4.41,4.41,0,0,1-1.12-3.22,8.58,8.58,0,0,1,.79-3.64,6.74,6.74,0,0,1,2.17-2.74,5.28,5.28,0,0,1,3.21-1,4.18,4.18,0,0,1,3,1.15,4.36,4.36,0,0,1,1.18,3.28,8.25,8.25,0,0,1-.81,3.58,7.07,7.07,0,0,1-2.27,2.73,5.49,5.49,0,0,1-3.23,1Z"/><path class="cls-2" d="M709.37,641.83a7.19,7.19,0,0,0-3.69,1,9.88,9.88,0,0,0-3,2.77l.6-3.47h-5l-3.47,19.63h5l1.85-10.49a5.55,5.55,0,0,1,1.93-3.26,5.87,5.87,0,0,1,3.52-1h1.31l.93-5.21Z"/><path class="cls-2" d="M719.61,641.8a9.8,9.8,0,0,0-4.79,1.24,11.15,11.15,0,0,0-3.84,3.54,13.9,13.9,0,0,0-2.32,7.59,8.89,8.89,0,0,0,.92,4.16,6.52,6.52,0,0,0,2.59,2.76,7.41,7.41,0,0,0,3.82,1,9.34,9.34,0,0,0,7.09-3.19l-.53,2.87h5L731,642.12h-5l-.49,2.8a5.68,5.68,0,0,0-2.22-2.24,7.19,7.19,0,0,0-3.7-.88Zm-1.53,15.91a4.11,4.11,0,0,1-3-1.22,4.55,4.55,0,0,1-1.21-3.35,8.41,8.41,0,0,1,.11-1.28,7.26,7.26,0,0,1,1.27-3.06,6.55,6.55,0,0,1,2.25-2,5.75,5.75,0,0,1,2.68-.67,4.12,4.12,0,0,1,4.29,4.43,10.58,10.58,0,0,1-.14,1.34A7.76,7.76,0,0,1,723,655a6.57,6.57,0,0,1-2.25,2,5.74,5.74,0,0,1-2.7.69Z"/><polygon class="cls-2" points="762.63 642.12 757.35 642.12 749.73 655.83 747.11 642.12 741.55 642.12 746.04 661.25 740.09 671.04 745.37 671.04 762.63 642.12 762.63 642.12"/><path class="cls-2" d="M784.71,641.8a8.84,8.84,0,0,0-4,.9,9.75,9.75,0,0,0-3,2.25l.49-2.83h-5l-5.1,29h5L775.22,659a6.11,6.11,0,0,0,2.28,2.23,7.15,7.15,0,0,0,3.67.89,9.57,9.57,0,0,0,4.75-1.28,11.56,11.56,0,0,0,3.86-3.59,13.57,13.57,0,0,0,2.13-5.34,12.79,12.79,0,0,0,.21-2.27,8.9,8.9,0,0,0-.92-4.14,6.38,6.38,0,0,0-2.61-2.71,7.77,7.77,0,0,0-3.88-.94Zm-4.11,15.91a4.23,4.23,0,0,1-3.06-1.17,4.29,4.29,0,0,1-1.23-3.26,10.87,10.87,0,0,1,.14-1.35,7.41,7.41,0,0,1,1.28-3.08,6.72,6.72,0,0,1,2.27-2,5.64,5.64,0,0,1,2.66-.69,4.23,4.23,0,0,1,3.08,1.17,4.32,4.32,0,0,1,1.21,3.26,8.84,8.84,0,0,1-.11,1.27,7.29,7.29,0,0,1-1.28,3.12,6.66,6.66,0,0,1-2.26,2,5.68,5.68,0,0,1-2.7.71Z"/><path class="cls-2" d="M807.5,641.83a7.24,7.24,0,0,0-3.69,1,9.85,9.85,0,0,0-3,2.77l.6-3.47h-5L793,661.75h5l1.84-10.49a5.6,5.6,0,0,1,1.93-3.26,5.9,5.9,0,0,1,3.53-1h1.31l.92-5.21Z"/><path class="cls-2" d="M818.81,641.8a12,12,0,0,0-6.12,1.59,11.68,11.68,0,0,0-4.32,4.34,12,12,0,0,0-1.58,6.08,8.66,8.66,0,0,0,1.07,4.33,7.21,7.21,0,0,0,3,2.9,9.28,9.28,0,0,0,4.45,1,12.3,12.3,0,0,0,6.15-1.58,11.57,11.57,0,0,0,4.37-4.3,11.82,11.82,0,0,0,1.6-6.1,8.5,8.5,0,0,0-1.08-4.32,7.49,7.49,0,0,0-3.05-2.93,9.49,9.49,0,0,0-4.48-1Zm-2.84,16a3.9,3.9,0,0,1-2.92-1.14,4.37,4.37,0,0,1-1.12-3.22,8.72,8.72,0,0,1,.78-3.64,6.84,6.84,0,0,1,2.18-2.74,5.24,5.24,0,0,1,3.21-1,4.15,4.15,0,0,1,3,1.15,4.37,4.37,0,0,1,1.19,3.28,8.25,8.25,0,0,1-.81,3.58,7.07,7.07,0,0,1-2.27,2.73,5.52,5.52,0,0,1-3.23,1Z"/><path class="cls-2" d="M856.27,641.83a9.4,9.4,0,0,0-7.41,3.76,5.31,5.31,0,0,0-2.3-2.78,7.55,7.55,0,0,0-3.94-1,8.61,8.61,0,0,0-3.44.71,8.47,8.47,0,0,0-2.79,1.92l.42-2.34h-5l-3.47,19.63h5l2-11.16a5.42,5.42,0,0,1,1.83-3.28,5.09,5.09,0,0,1,3.35-1.15,3.79,3.79,0,0,1,2.69.9,3.45,3.45,0,0,1,1,2.64,7.33,7.33,0,0,1-.11,1.2l-1.91,10.85h4.92l2-10.88v0a5.61,5.61,0,0,1,1.77-3.52,5.13,5.13,0,0,1,3.48-1.22,3.7,3.7,0,0,1,2.67.9,3.42,3.42,0,0,1,.94,2.6,7.49,7.49,0,0,1-.1,1.24l-1.92,10.85h4.93l2.05-11.52a10.17,10.17,0,0,0,.18-2,6.07,6.07,0,0,0-1.81-4.71,7,7,0,0,0-4.92-1.67Z"/><path class="cls-2" d="M877,641.8a12,12,0,0,0-6.11,1.59,11.78,11.78,0,0,0-4.33,4.34,12,12,0,0,0-1.57,6.08,8.66,8.66,0,0,0,1.06,4.33,7.29,7.29,0,0,0,3,2.9,9.21,9.21,0,0,0,4.44,1,12.24,12.24,0,0,0,6.15-1.58,11.59,11.59,0,0,0,4.38-4.3,11.91,11.91,0,0,0,1.59-6.1,8.5,8.5,0,0,0-1.08-4.32,7.43,7.43,0,0,0-3-2.93,9.46,9.46,0,0,0-4.48-1Zm-2.83,16a3.91,3.91,0,0,1-2.93-1.14,4.41,4.41,0,0,1-1.12-3.22,8.58,8.58,0,0,1,.79-3.64,6.74,6.74,0,0,1,2.17-2.74,5.28,5.28,0,0,1,3.21-1,4.18,4.18,0,0,1,3,1.15,4.36,4.36,0,0,1,1.18,3.28,8.25,8.25,0,0,1-.81,3.58,7.07,7.07,0,0,1-2.27,2.73,5.49,5.49,0,0,1-3.22,1Z"/><path class="cls-2" d="M898.51,641.8a11.24,11.24,0,0,0-9.32,4.8,12.72,12.72,0,0,0-2.16,5.33,13.49,13.49,0,0,0-.21,2.31A7.53,7.53,0,0,0,889,660a8.25,8.25,0,0,0,5.94,2.11,11,11,0,0,0,6.32-1.88,11.47,11.47,0,0,0,4.13-5.07h-5.35a4.65,4.65,0,0,1-4.39,2.7,3.56,3.56,0,0,1-2.77-1.08,4.45,4.45,0,0,1-1-3.11,9.85,9.85,0,0,1,.18-1.7,8.06,8.06,0,0,1,2-4.37,4.88,4.88,0,0,1,3.63-1.54,3.65,3.65,0,0,1,2.38.72,3.18,3.18,0,0,1,1.1,2h5.35a7.25,7.25,0,0,0-2.32-5.14,8.46,8.46,0,0,0-5.73-1.8Z"/><path class="cls-2" d="M914.53,634a3.59,3.59,0,0,0-2.53,1,3.23,3.23,0,0,0-1.08,2.43,2.21,2.21,0,0,0,.71,1.7,2.6,2.6,0,0,0,1.87.68,3.55,3.55,0,0,0,2.52-1,3.25,3.25,0,0,0,1.06-2.43,2.24,2.24,0,0,0-.7-1.7,2.59,2.59,0,0,0-1.85-.68Zm1,8.16h-5l-3.47,19.63h5l3.47-19.63Z"/><path class="cls-2" d="M928.46,641.8a12,12,0,0,0-6.11,1.59,11.71,11.71,0,0,0-4.33,4.34,12,12,0,0,0-1.57,6.08,8.66,8.66,0,0,0,1.06,4.33,7.33,7.33,0,0,0,3,2.9,9.28,9.28,0,0,0,4.45,1,12.24,12.24,0,0,0,6.15-1.58,11.59,11.59,0,0,0,4.38-4.3,11.91,11.91,0,0,0,1.59-6.1,8.5,8.5,0,0,0-1.08-4.32,7.43,7.43,0,0,0-3-2.93,9.46,9.46,0,0,0-4.48-1Zm-2.84,16a3.9,3.9,0,0,1-2.92-1.14,4.41,4.41,0,0,1-1.12-3.22,8.58,8.58,0,0,1,.79-3.64,6.74,6.74,0,0,1,2.17-2.74,5.28,5.28,0,0,1,3.21-1,4.18,4.18,0,0,1,3,1.15,4.36,4.36,0,0,1,1.18,3.28,8.25,8.25,0,0,1-.81,3.58,7.07,7.07,0,0,1-2.27,2.73,5.49,5.49,0,0,1-3.23,1Z"/><path class="cls-2" d="M952.38,641.83a8.51,8.51,0,0,0-3.47.73,8.92,8.92,0,0,0-2.87,2l.42-2.4h-5L938,661.75h5l2-11.09a5.89,5.89,0,0,1,1.86-3.42,5.06,5.06,0,0,1,3.39-1.19,3.65,3.65,0,0,1,2.67.92,3.6,3.6,0,0,1,.94,2.69,7.49,7.49,0,0,1-.1,1.24l-1.92,10.85h4.93l2-11.52a10.71,10.71,0,0,0,.18-2.05,6.14,6.14,0,0,0-1.75-4.7,6.74,6.74,0,0,0-4.81-1.65Z"/><path class="cls-2" d="M971.88,641.8a9.83,9.83,0,0,0-4.79,1.24,11.15,11.15,0,0,0-3.84,3.54,13.9,13.9,0,0,0-2.32,7.59,8.89,8.89,0,0,0,.92,4.16,6.52,6.52,0,0,0,2.59,2.76,7.41,7.41,0,0,0,3.82,1,9.34,9.34,0,0,0,7.09-3.19l-.53,2.87h5l3.47-19.63h-5l-.49,2.8a5.68,5.68,0,0,0-2.22-2.24,7.19,7.19,0,0,0-3.7-.88Zm-1.52,15.91a4.11,4.11,0,0,1-3.05-1.22,4.55,4.55,0,0,1-1.21-3.35,8.41,8.41,0,0,1,.11-1.28,7.26,7.26,0,0,1,1.27-3.06,6.55,6.55,0,0,1,2.25-2,5.75,5.75,0,0,1,2.68-.67,4.11,4.11,0,0,1,4.29,4.43,10.58,10.58,0,0,1-.14,1.34A7.62,7.62,0,0,1,975.3,655a6.57,6.57,0,0,1-2.25,2,5.73,5.73,0,0,1-2.69.69Z"/></svg>